Coordinates
version=1
nRows=29
nColumns=24
inDegrees=yes

Units are S.I. units (second, meters, Newtons, ...)
If the header above contains a line with 'inDegrees', this indicates whether rotational values are in degrees (yes) or radians (no).

endheader
time	pelvis_tilt	pelvis_list	pelvis_rotation	pelvis_tx	pelvis_ty	pelvis_tz	hip_flexion_r	hip_adduction_r	hip_rotation_r	knee_angle_r	ankle_angle_r	subtalar_angle_r	mtp_angle_r	hip_flexion_l	hip_adduction_l	hip_rotation_l	knee_angle_l	ankle_angle_l	subtalar_angle_l	mtp_angle_l	lumbar_extension	lumbar_bending	lumbar_rotation
5.200000	8.053327	0.637201	-180.844540	0.255757	0.745012	-1.229217	41.829333	-22.392099	-23.845897	-65.038563	24.967912	11.162960	0.000000	41.196583	-27.891057	-21.900128	-62.371869	22.791470	17.226779	0.000000	-4.534460	1.053590	2.531350
5.205000	8.066293	0.651298	-180.869013	0.255213	0.747980	-1.229104	41.382345	-22.201707	-24.014967	-64.212116	24.580969	11.132274	0.000000	40.704938	-27.720630	-22.131012	-61.557581	22.406360	16.972741	0.000000	-4.445641	1.074031	2.535597
5.210000	8.136674	0.669112	-180.874497	0.254775	0.750860	-1.228919	41.002337	-22.015430	-24.184540	-63.385027	24.171787	11.099035	0.000000	40.331659	-27.528204	-22.310665	-60.811392	21.877417	16.991869	0.000000	-4.304743	1.100582	2.529462
5.215000	8.236529	0.729134	-180.939280	0.254265	0.753710	-1.228698	40.637681	-21.759819	-24.357551	-62.519813	23.747542	11.052785	0.000000	39.923232	-27.403296	-22.546373	-59.933988	21.580293	16.947425	0.000000	-4.113718	1.186223	2.594741
5.220000	8.279047	0.740331	-180.925388	0.253791	0.756575	-1.228503	40.209794	-21.588510	-24.540559	-61.673644	23.332304	11.029414	0.000000	39.500818	-27.199799	-22.740220	-59.131002	21.184098	16.911926	0.000000	-3.996971	1.203962	2.570896
5.225000	8.238301	0.720543	-180.877144	0.253267	0.759444	-1.228430	39.690741	-21.461253	-24.732770	-60.845573	22.960319	11.024687	0.000000	38.990146	-26.969041	-22.946332	-58.319463	20.764477	16.850957	0.000000	-3.987933	1.169206	2.477912
5.230000	8.169468	0.612653	-180.786411	0.252536	0.762455	-1.227740	39.110606	-21.497038	-24.921823	-59.980662	22.559542	11.156648	0.000000	38.397506	-26.566856	-23.187245	-57.467727	20.412742	16.740727	0.000000	-3.958297	1.110497	2.370864
5.235000	8.369336	0.756536	-180.889021	0.252205	0.765080	-1.228015	38.862041	-21.076475	-25.071884	-59.098596	22.127651	11.132986	0.000000	38.154029	-26.582193	-23.370651	-56.654013	19.954860	16.669665	0.000000	-3.697956	1.250125	2.429527
5.240000	8.389616	0.796121	-180.914173	0.251699	0.767858	-1.227817	38.421215	-20.834253	-25.204365	-58.233617	21.708724	11.026824	0.000000	37.706867	-26.418933	-23.561562	-55.846206	19.535760	16.547744	0.000000	-3.583507	1.278637	2.516366
5.245000	8.366723	0.718743	-180.843418	0.250964	0.770755	-1.227175	37.903020	-20.828347	-25.418139	-57.378894	21.289392	11.048102	0.000000	37.168171	-26.047470	-23.767497	-54.978611	19.141798	16.425219	0.000000	-3.515161	1.258559	2.403975
5.250000	8.338587	0.682732	-180.796733	0.250456	0.773489	-1.227057	37.409798	-20.706197	-25.587304	-56.543484	20.891292	11.057451	0.000000	36.664918	-25.781827	-23.955152	-54.129823	18.714924	16.345186	0.000000	-3.482841	1.209479	2.332283
5.255000	8.483092	0.708573	-180.818172	0.249935	0.776119	-1.226797	37.087790	-20.478447	-25.713532	-55.639880	20.410594	11.104031	0.000000	36.333907	-25.585895	-24.133469	-53.282108	18.309872	16.337716	0.000000	-3.243310	1.260859	2.338516
5.260000	8.428486	0.728134	-180.772381	0.249352	0.778832	-1.226791	36.549841	-20.274789	-25.889863	-54.792603	20.045947	10.956875	0.000000	35.816485	-25.381142	-24.283470	-52.431646	17.874767	16.248307	0.000000	-3.233109	1.251532	2.291592
5.265000	8.460437	0.759407	-180.794687	0.248811	0.781493	-1.226555	36.074824	-20.003245	-25.826657	-53.798090	19.832587	11.325601	0.000000	35.371576	-25.196189	-24.467084	-51.588395	17.483873	16.144969	0.000000	-3.123348	1.296278	2.313319
5.270000	8.553172	0.798901	-180.821842	0.248196	0.784134	-1.226275	35.695415	-19.757563	-25.970020	-52.899631	19.367504	11.239916	0.000000	34.971647	-25.005003	-24.646049	-50.710324	17.062082	16.026323	0.000000	-2.930334	1.361093	2.328700
5.275000	8.610687	0.815452	-180.810819	0.247654	0.786658	-1.226055	35.276956	-19.560574	-26.127866	-52.014787	18.941728	11.195000	0.000000	34.563453	-24.792941	-24.816924	-49.862348	16.648273	15.948069	0.000000	-2.783027	1.393468	2.289974
5.280000	8.633519	0.812248	-180.794332	0.247018	0.789210	-1.225908	34.818046	-19.351111	-26.222024	-51.110488	18.526289	11.146050	0.000000	34.100344	-24.551671	-24.978456	-48.992591	16.250993	15.879363	0.000000	-2.682651	1.414421	2.188844
5.285000	8.682583	0.814519	-180.775555	0.246457	0.791712	-1.225685	34.390994	-19.133465	-26.292347	-50.193422	18.102083	11.100769	0.000000	33.674511	-24.303456	-25.122039	-48.110839	15.839487	15.787727	0.000000	-2.524273	1.389390	2.247544
5.290000	8.710788	0.851841	-180.742094	0.245998	0.794110	-1.225652	33.962111	-18.897523	-26.431531	-49.338161	17.692909	10.998876	0.000000	33.269921	-24.103025	-25.216730	-47.259164	15.431661	15.704983	0.000000	-2.435700	1.421655	2.168650
5.295000	8.824481	0.899908	-180.789856	0.245319	0.796553	-1.225332	33.608635	-18.620069	-26.520529	-48.421629	17.226720	10.886018	0.000000	32.885533	-23.906583	-25.355810	-46.371140	15.016044	15.549608	0.000000	-2.234769	1.543825	2.124374
5.300000	8.870137	0.920752	-180.780906	0.244768	0.798928	-1.225109	33.192326	-18.387646	-26.610260	-47.526596	16.792105	10.785305	0.000000	32.468489	-23.682397	-25.476302	-45.501916	14.609527	15.447000	0.000000	-2.081595	1.536818	2.193466
5.305000	8.922635	0.943604	-180.753037	0.244109	0.801261	-1.224962	32.750045	-18.151784	-26.706641	-46.601312	16.369967	10.737682	0.000000	32.057027	-23.459519	-25.593519	-44.629721	14.221497	15.394882	0.000000	-1.946603	1.580277	2.061069
5.310000	8.940164	0.976959	-180.733710	0.243516	0.803545	-1.224796	32.285867	-17.892797	-26.776048	-45.684585	15.938642	10.658365	0.000000	31.624776	-23.241351	-25.681415	-43.780644	13.833926	15.259105	0.000000	-1.829650	1.585984	2.091738
5.315000	8.968376	0.995743	-180.675856	0.242995	0.805882	-1.224721	31.828946	-17.653586	-26.881010	-44.760305	15.504980	10.534438	0.000000	31.215251	-22.988910	-25.732674	-42.894351	13.389045	15.098988	0.000000	-1.751162	1.608892	1.922566
5.320000	9.045759	1.047831	-180.709595	0.242311	0.808101	-1.224438	31.445106	-17.361117	-26.904801	-43.842502	15.062450	10.437300	0.000000	30.816662	-22.799865	-25.851977	-42.027687	12.977113	14.933355	0.000000	-1.539741	1.648047	2.052135
5.325000	9.093648	1.079744	-180.683294	0.241772	0.810241	-1.224340	31.032178	-17.112005	-26.994479	-42.954391	14.617668	10.365051	0.000000	30.429514	-22.592915	-25.942848	-41.173786	12.528018	14.857677	0.000000	-1.409350	1.677516	2.002448
5.330000	9.119561	1.097791	-180.705315	0.241056	0.812426	-1.224071	30.588597	-16.850922	-26.991550	-42.026634	14.209440	10.205719	0.000000	29.968096	-22.340423	-26.009893	-40.285652	12.179553	14.650378	0.000000	-1.279391	1.722338	1.992879
5.335000	9.067660	1.192724	-180.680192	0.240363	0.814704	-1.224202	30.012745	-16.491990	-27.089465	-41.056275	13.771203	10.016244	0.000000	29.463587	-22.196293	-26.051211	-39.410134	11.750708	14.528393	0.000000	-1.247847	1.796653	1.920934
5.340000	9.146760	1.141282	-180.652005	0.239766	0.816706	-1.223879	29.647333	-16.326045	-27.079837	-40.157890	13.303299	9.866405	0.000000	29.085590	-21.862710	-26.125028	-38.535244	11.324344	14.326811	0.000000	-1.111234	1.796661	1.737960
